<svg xmlns="http://www.w3.org/2000/svg" width="900" height="620" viewBox="0 0 900 620">
  <defs>
    <linearGradient id="bg" x1="0" y1="0" x2="1" y2="1">
      <stop offset="0%" stop-color="#0f766e"/>
      <stop offset="100%" stop-color="#1d4ed8"/>
    </linearGradient>
    <linearGradient id="floor" x1="0" y1="0" x2="1" y2="0">
      <stop offset="0%" stop-color="#f8fafc"/>
      <stop offset="100%" stop-color="#dbeafe"/>
    </linearGradient>
  </defs>
  <rect width="900" height="620" rx="42" fill="url(#bg)"/>
  <rect x="0" y="390" width="900" height="230" fill="url(#floor)" opacity=".92"/>
  <rect x="74" y="92" width="752" height="278" rx="28" fill="rgba(255,255,255,.82)"/>
  <rect x="105" y="125" width="690" height="210" rx="20" fill="#e0f2fe"/>
  <circle cx="185" cy="455" r="48" fill="#0f766e"/>
  <circle cx="185" cy="390" r="34" fill="#fde68a"/>
  <rect x="145" y="498" width="80" height="76" rx="26" fill="#134e4a"/>
  <circle cx="335" cy="455" r="48" fill="#2563eb"/>
  <circle cx="335" cy="390" r="34" fill="#fde68a"/>
  <rect x="295" y="498" width="80" height="76" rx="26" fill="#1e3a8a"/>
  <circle cx="485" cy="455" r="48" fill="#0f766e"/>
  <circle cx="485" cy="390" r="34" fill="#fde68a"/>
  <rect x="445" y="498" width="80" height="76" rx="26" fill="#14532d"/>
  <rect x="610" y="430" width="170" height="118" rx="24" fill="rgba(255,255,255,.82)"/>
  <rect x="640" y="458" width="110" height="12" rx="6" fill="#0f766e" opacity=".75"/>
  <rect x="640" y="486" width="86" height="12" rx="6" fill="#2563eb" opacity=".65"/>
  <rect x="640" y="514" width="122" height="12" rx="6" fill="#64748b" opacity=".35"/>
  <text x="92" y="72" font-size="35" font-family="Arial, sans-serif" font-weight="800" fill="white">Presentasi Siswa</text>
  <text x="92" y="115" font-size="20" font-family="Arial, sans-serif" fill="white" opacity=".86">SMAN 9 Depok</text>
</svg>
